{"title":"Wrong Turn Trilogy DVDrip Boxset English Klam","uid":6379171,"size":4264233930,"categoryP":"video","categoryS":"movies","magnet":"?xt=urn:btih:4214aebd600d6e684651e9632a8acac4a297ceba&amp;dn=Wrong+Turn+Trilogy+DVDrip+Boxset+English+Klam&amp;tr=udp%3A%2F%2Ftracker.openbittorrent.com%3A80&amp;tr=udp%3A%2F%2Fopen.demonii.com%3A1337&amp;tr=udp%3A%2F%2Ftracker.coppersurfer.tk%3A6969&amp;tr=udp%3A%2F%2Fexodus.desync.com%3A6969","seeders":1,"leechers":0,"uploader":"Klambake","files":-1,"time":1304968129,"description":"[img]http://img714.imageshack.us/img714/3917/11616.jpg[/img]\n\nWrong Turn 2003, http://www.imdb.com/title/tt0295700\nChris Flynn is driving his car for a job interview in another city. However, an accident with a trunk transporting chemical products blocks the highway and Chris looks for an alternative route through the mountains of West Virginia to accomplish his schedule. Due to a lack of attention, he crashes another car parked in the middle of the road with flat tires. Chris meets a group of five friends, who intended to camp in the forest, and they decide to leave the couple Francine and Evan on the place, while Chris, Jessie, Carly and her fiancÃƒÂ© Scott tries to find some help. They find a weird cabin in the middle of nowhere, where three violent cannibalistic mountain men with the appearance of monsters live. The two couples try to escape from the mountain men while chased by them. \n\nWrong Turn 2, Dead End 2007, http://www.imdb.com/title/tt0804555\nRetired military commander Colonel Dale Murphy hosts the simulated post-apocalyptic reality show where participants are challenged to survive a remote West Virginia wasteland. But the show turns into a nightmarish showdown when each realizes they are being hunted by an inbred family of cannibals determined to make them all dinner!\n\nWrong Turn 3, Left for Dead 2009, http://www.imdb.com/title/tt1261978\nWhile rafting in the Bluefish River area, four college kids are attacked by the mutant cannibal hillbilly Three Finger. Only the teenager Alex succeeds in escaping running through the woods. Meanwhile, a group of dangerous criminals are transported from the West Virginia Grafton Penitentiary in a custody bus escorted by three security guards through the backwoods. When they park in a rest stop in a police station, Sheriff Carver is informed about the missing teenagers. The bus driver heads to their destination with the guards and the prisoners but a tow truck driven by Three Finger hits the bus that falls off the road. They are attacked by Three Finger and the perilous Carlo Chavez dominates the guards and the other prisoners. When they accidentally meet Alex, the girl tells how sick and threatening Three Finger is; sooner the survivals discover that Alex is telling the truth. \n\nGeneral:\n\nComplete name                    : \\\\Wrong Turn Trilogy\\\\Wrong Turn.avi\nFormat                           : AVI\nFormat/Info                      : Audio Video Interleave\nFile size                        : 1.23 GiB\nDuration                         : 1h 20mn\nOverall bit rate                 : 2 174 Kbps\n\nVideo:\n\nFormat                           : MPEG-4 Visual\nFormat profile                   : Simple@L3\nFormat settings, BVOP            : No\nFormat settings, QPel            : No\nFormat settings, GMC             : No warppoints\nFormat settings, Matrix          : Default (H.263)\nCodec ID                         : XVID\nCodec ID/Hint                    : XviD\nDuration                         : 1h 20mn\nBit rate                         : 1 715 Kbps\nWidth                            : 652 pixels\nHeight                           : 352 pixels\nDisplay aspect ratio             : 1.852\nFrame rate                       : 25.000 fps\nColor space                      : YUV\nChroma subsampling               : 4:2:0\nBit depth                        : 8 bits\nScan type                        : Progressive\nBits/(Pixel*Frame)               : 0.299\nStream size                      : 990 MiB (79%)\nWriting library                  : XviD 1.1.2 (UTC 2006-11-01)\n\nAudio:\n\nFormat                           : AC-3\nFormat/Info                      : Audio Coding 3\nMode extension                   : CM (complete main)\nCodec ID                         : 2000\nDuration                         : 1h 20mn\nBit rate mode                    : Constant\nBit rate                         : 448 Kbps\nChannel(s)                       : 6 channels\nChannel positions                : Front: L C R, Side: L R, LFE\nSampling rate                    : 48.0 KHz\nBit depth                        : 16 bits\nStream size                      : 259 MiB (21%)\nAlignment                        : Aligned on interleaves\nInterleave, duration             : 32 ms (0.80 video frame)\nInterleave, preload duration     : 160 ms\n","torrent":{"xt":"urn:btih:4214aebd600d6e684651e9632a8acac4a297ceba","amp;dn":"Wrong+Turn+Trilogy+DVDrip+Boxset+English+Klam","amp;tr":["udp%3A%2F%2Ftracker.openbittorrent.com%3A80","udp%3A%2F%2Fopen.demonii.com%3A1337","udp%3A%2F%2Ftracker.coppersurfer.tk%3A6969","udp%3A%2F%2Fexodus.desync.com%3A6969"],"infoHash":"4214aebd600d6e684651e9632a8acac4a297ceba","infoHashBuffer":{"type":"Buffer","data":[66,20,174,189,96,13,110,104,70,81,233,99,42,138,202,196,162,151,206,186]},"announce":[],"urlList":[]}}